# xmcd
#
# Track frame offsets:
#	150
#	15891
#	30047
#	44234
#	58903
#	74436
#	89683
#	103513
#	117279
#	132549
#	150031
#	167582
#	182783
#	202842
#	217864
#
# Disc length: 3132 seconds
#
# Revision: 1
# Processed by: cddbd v1.5.2PL0 Copyright (c) Steve Scherf et al.
# Submitted via: audiograbber 1.83.01
#
DISCID=c10c3a0f
DTITLE=David Hasselhoff - A real good feeling
DYEAR=2011
DGENRE=
TTITLE0=It's A Real Good Feeling
TTITLE1=Hey, We Wanna Rock The World
TTITLE2=Keep My Dream Alive
TTITLE3=Lonely Days and Lonely Nights
TTITLE4=You Are A Hero
TTITLE5=Like The Seven Seas
TTITLE6=California Girl
TTITLE7=Pina Colada Girl
TTITLE8=Heartbreak Café
TTITLE9=This Time Around
TTITLE10=Looking for Freedom 2011
TTITLE11=Das Café an der Seine
TTITLE12=Wir zwei allein
TTITLE13=I'll Be Here With You
TTITLE14=It's A Real Good Feeling
EXTD=The Comeback Album 2011
EXTT0=
EXTT1=
EXTT2=
EXTT3=
EXTT4=
EXTT5=
EXTT6=
EXTT7=
EXTT8=
EXTT9=
EXTT10=
EXTT11=Heartbreak Café German Version\nBonus - Track
EXTT12=Bonus - Track
EXTT13=Bonus - Track
EXTT14=Malibu Mix\nBonus - Track
PLAYORDER=
